<svg width="27" height="27" viewBox="0 0 27 27" fill="none" xmlns="http://www.w3.org/2000/svg">
<g id="Frame 187">
<circle id="Ellipse 23" cx="13.9229" cy="13.0769" r="13.0769" fill="#FF3B30"/>
<path id="Vector" d="M16.5975 19.6154H11.2486C10.4737 19.6154 9.84067 18.9711 9.79925 18.1599L9.7991 18.156L9.30396 8.75861H18.5419L18.0489 18.1577C18.0068 18.972 17.3742 19.6154 16.6001 19.6154L16.5975 19.6154ZM10.1726 9.63044L10.6196 18.1089C10.637 18.4631 10.9118 18.7434 11.2484 18.7436H16.5969C16.9329 18.7434 17.2074 18.4641 17.2256 18.1123L17.2257 18.1106L17.6732 9.63041L10.1726 9.63044ZM19.1537 9.63044H8.69214V8.75863H19.1537V9.63044ZM12.8768 6.53845H14.9691C15.7733 6.53945 16.4251 7.23099 16.426 8.08434V9.63041H11.4198V8.08442C11.4207 7.231 12.0726 6.53945 12.8768 6.53845ZM15.6044 8.75863V8.08444C15.6041 7.71223 15.3198 7.41058 14.9691 7.41025H12.8768C12.526 7.41057 12.2417 7.71222 12.2414 8.0844V8.75861L15.6044 8.75863ZM14.3337 17.5172H13.5121V10.8567H14.3337V17.5172ZM16.426 17.5172H15.6044V10.8567H16.426V17.5172ZM12.2414 17.5172H11.4198V10.8567H12.2414V17.5172Z" fill="white"/>
</g>
</svg>
